<svg id="ef6a3d62-b05c-4327-809f-670c89947cc1" data-name="Layer 1" xmlns="http://www.w3.org/2000/svg" viewBox="0 0 1000 1000"><title>Tool icons</title><polygon points="100 650 650 900 900 650 400 500 100 650" style="fill:#f1f2f2;stroke:#231f20;stroke-linecap:round;stroke-linejoin:round;stroke-width:20px"/><rect x="580" y="630" width="90" height="240" style="fill:#00aeef"/><path d="M650,650V850H600V650h50m40-40H560V890H690V610Z" style="fill:#231f20"/><path d="M625,720c-40.54,0-78-24.14-105.35-68C494.08,611.11,480,557.12,480,500s14.08-111.11,39.65-152c27.4-43.84,64.81-68,105.35-68s78,24.14,105.35,68C755.92,388.89,770,442.88,770,500s-14.08,111.11-39.65,152C703,695.86,665.54,720,625,720Z" style="fill:#00aeef"/><path d="M625,300c69,0,125,89.54,125,200S694,700,625,700,500,610.46,500,500s56-200,125-200m0-40c-24.66,0-49.24,7.81-71.07,22.59-19.54,13.22-36.78,31.66-51.24,54.79C475.16,381.43,460,439.18,460,500s15.16,118.57,42.69,162.62c14.46,23.13,31.7,41.57,51.24,54.79C575.76,732.19,600.34,740,625,740s49.24-7.81,71.07-22.59c19.54-13.22,36.78-31.66,51.24-54.79C774.84,618.57,790,560.82,790,500s-15.16-118.57-42.69-162.62c-14.46-23.13-31.7-41.57-51.24-54.79C674.24,267.81,649.66,260,625,260Z" style="fill:#231f20"/></svg>