<svg id="e9ec08c2-1de7-4e7f-b9f7-54990a1249bb" data-name="Layer 1" xmlns="http://www.w3.org/2000/svg" viewBox="0 0 1000 1000"><title>Tool icons</title><rect x="100" y="100" width="800" height="800" style="fill:#f1f2f2"/><circle cx="450" cy="500" r="100" style="fill:#00aeef;stroke:#231f20;stroke-miterlimit:10;stroke-width:20px"/><path d="M100,350s100,0,200-50,100-50,200-50,136.75,18.38,200,50c100,50,200,50,200,50" style="fill:none;stroke:#231f20;stroke-miterlimit:10;stroke-width:20px"/><path d="M100,200c100,0,300-50,400-50s250,50,400,50" style="fill:none;stroke:#231f20;stroke-miterlimit:10;stroke-width:20px"/><path d="M900,650s-100,0-200,50-100,50-200,50-136.75-18.38-200-50c-100-50-200-50-200-50" style="fill:none;stroke:#231f20;stroke-miterlimit:10;stroke-width:20px"/><path d="M900,800c-100,0-300,50-400,50s-250-50-400-50" style="fill:none;stroke:#231f20;stroke-miterlimit:10;stroke-width:20px"/><line x1="200" y1="500" x2="756.62" y2="500" style="fill:none;stroke:#231f20;stroke-miterlimit:10;stroke-width:40px"/><polygon points="624.08 663.59 596.79 634.3 741.27 500.04 596.79 365.74 624.08 336.44 800 500.04 624.08 663.59" style="fill:#231f20"/></svg>