<svg id="ec1f83aa-4d15-421f-bb7b-53192da2c02c" data-name="Layer 1" xmlns="http://www.w3.org/2000/svg" viewBox="0 0 1000 1000"><title>Tool icons</title><polygon points="90 650 640 900 890 650 390 500 90 650" style="fill:#f1f2f2;stroke:#231f20;stroke-linecap:round;stroke-linejoin:round;stroke-width:20px"/><rect x="370" y="580" width="90" height="240" style="fill:#00aeef"/><path d="M440,600V800H390V600h50m40-40H350V840H480V560Z" style="fill:#231f20"/><path d="M415,670c-40.54,0-77.95-24.14-105.35-68C284.08,561.11,270,507.12,270,450s14.08-111.11,39.65-152c27.4-43.84,64.81-68,105.35-68S493,254.14,520.35,298C545.92,338.89,560,392.88,560,450s-14.08,111.11-39.65,152C493,645.86,455.54,670,415,670Z" style="fill:#00aeef"/><path d="M415,250c69,0,125,89.54,125,200S484,650,415,650,290,560.46,290,450s56-200,125-200m0-40c-24.66,0-49.24,7.81-71.07,22.59-19.54,13.22-36.78,31.66-51.24,54.79C265.16,331.43,250,389.18,250,450s15.16,118.57,42.69,162.62c14.46,23.13,31.7,41.57,51.24,54.79C365.76,682.19,390.34,690,415,690s49.24-7.81,71.07-22.59c19.54-13.22,36.78-31.66,51.24-54.79C564.84,568.57,580,510.82,580,450s-15.16-118.57-42.69-162.62c-14.46-23.13-31.7-41.57-51.24-54.79C464.24,217.81,439.66,210,415,210Z" style="fill:#231f20"/></svg>