<svg id="a7a11d09-4810-4cca-8fdf-5d0a364405f5" data-name="Layer 1" xmlns="http://www.w3.org/2000/svg" viewBox="0 0 1000 1000"><title>Tool icons</title><polygon points="100 650 650 900 900 650 400 500 100 650" style="fill:#f1f2f2;stroke:#231f20;stroke-linecap:round;stroke-linejoin:round;stroke-width:20px"/><rect x="480" y="480" width="90" height="240" style="fill:#00aeef"/><path d="M550,500V700H500V500h50m40-40H460V740H590V460Z" style="fill:#231f20"/><path d="M525,570c-40.54,0-77.95-24.14-105.35-68C394.08,461.11,380,407.12,380,350s14.08-111.11,39.65-152c27.4-43.84,64.81-68,105.35-68s78,24.14,105.35,68C655.92,238.89,670,292.88,670,350s-14.08,111.11-39.65,152C603,545.86,565.54,570,525,570Z" style="fill:#00aeef"/><path d="M525,150c69,0,125,89.54,125,200S594,550,525,550,400,460.46,400,350s56-200,125-200m0-40c-24.66,0-49.24,7.81-71.07,22.59-19.54,13.22-36.78,31.66-51.24,54.79C375.16,231.43,360,289.18,360,350s15.16,118.57,42.69,162.62c14.46,23.13,31.7,41.57,51.24,54.79C475.76,582.19,500.34,590,525,590s49.24-7.81,71.07-22.59c19.54-13.22,36.78-31.66,51.24-54.79C674.84,468.57,690,410.82,690,350s-15.16-118.57-42.69-162.62c-14.46-23.13-31.7-41.57-51.24-54.79C574.24,117.81,549.66,110,525,110Z" style="fill:#231f20"/></svg>